<svg width="1936" height="1096" viewBox="0 0 1936 1096" fill="none" xmlns="http://www.w3.org/2000/svg">
<rect width="1936" height="1096" fill="#1C1D30"/>
<rect x="23" y="851" width="32" height="34" fill="#EDB968"/>
<rect x="23" y="817" width="32" height="34" fill="#D5915D"/>
<path d="M23 885H55V1036H234V1072H28C25.2386 1072 23 1069.76 23 1067V885Z" fill="#D5915D"/>
<rect x="234" y="1036" width="643" height="36" fill="#BA6A4A"/>
<rect x="877" y="1036" width="481" height="36" fill="#8E4940"/>
<path d="M1358 1036H1883V295H1915V1067C1915 1069.76 1912.76 1072 1910 1072H1358V1036Z" fill="#6E3447"/>
<path d="M23 29C23 26.2386 25.2386 24 28 24L188 24V60H55V261H23V29Z" fill="white"/>
<rect x="218" y="24" width="30" height="36" fill="white"/>
<rect x="248" y="24" width="270" height="36" fill="#EDB968"/>
<rect x="548" y="24" width="30" height="36" fill="#EDB968"/>
<rect x="188" y="24" width="30" height="36" fill="#EDB968"/>
<rect x="518" y="24" width="30" height="36" fill="#D5915D"/>
<rect x="578" y="24" width="316" height="36" fill="#D5915D"/>
<rect x="894" y="24" width="510" height="36" fill="#BA6A4A"/>
<path d="M1404 24H1910C1912.76 24 1915 26.2386 1915 29V295H1883V60H1404V24Z" fill="#BA6A4A"/>
<rect x="23" y="295" width="32" height="34" fill="white"/>
<rect x="23" y="261" width="32" height="34" fill="#EDB968"/>
<rect x="23" y="329" width="32" height="488" fill="#EDB968"/>
<path d="M125 60H427V477C427 479.761 424.761 482 422 482H413V511C413 513.761 410.761 516 408 516H397V527C397 529.761 394.761 532 392 532H383V543C383 545.761 380.761 548 378 548H353V561C353 563.761 350.761 566 348 566H206C203.239 566 201 563.761 201 561V548H176C173.239 548 171 545.761 171 543V532H160C157.239 532 155 529.761 155 527V516H146C143.239 516 141 513.761 141 511V482H130C127.239 482 125 479.761 125 477V60Z" fill="#32374C"/>
<path d="M1509 60H1811V477C1811 479.761 1808.76 482 1806 482H1797V511C1797 513.761 1794.76 516 1792 516H1781V527C1781 529.761 1778.76 532 1776 532H1767V543C1767 545.761 1764.76 548 1762 548H1737V561C1737 563.761 1734.76 566 1732 566H1590C1587.24 566 1585 563.761 1585 561V548H1560C1557.24 548 1555 545.761 1555 543V532H1544C1541.24 532 1539 529.761 1539 527V516H1530C1527.24 516 1525 513.761 1525 511V482H1514C1511.24 482 1509 479.761 1509 477V60Z" fill="#32374C"/>
<path d="M471 60H773V579C773 581.761 770.761 584 768 584H759V613C759 615.761 756.761 618 754 618H743V629C743 631.761 740.761 634 738 634H729V645C729 647.761 726.761 650 724 650H699V663C699 665.761 696.761 668 694 668H552C549.239 668 547 665.761 547 663V650H522C519.239 650 517 647.761 517 645V634H506C503.239 634 501 631.761 501 629V618H492C489.239 618 487 615.761 487 613V584H476C473.239 584 471 581.761 471 579V60Z" fill="#32374C"/>
<path d="M1163 60H1465V579C1465 581.761 1462.76 584 1460 584H1451V613C1451 615.761 1448.76 618 1446 618H1435V629C1435 631.761 1432.76 634 1430 634H1421V645C1421 647.761 1418.76 650 1416 650H1391V663C1391 665.761 1388.76 668 1386 668H1244C1241.24 668 1239 665.761 1239 663V650H1214C1211.24 650 1209 647.761 1209 645V634H1198C1195.24 634 1193 631.761 1193 629V618H1184C1181.24 618 1179 615.761 1179 613V584H1168C1165.24 584 1163 581.761 1163 579V60Z" fill="#32374C"/>
<path d="M817 60H1119V663C1119 665.761 1116.76 668 1114 668H1105V697C1105 699.761 1102.76 702 1100 702H1089V713C1089 715.761 1086.76 718 1084 718H1075V729C1075 731.761 1072.76 734 1070 734H1045V747C1045 749.761 1042.76 752 1040 752H898C895.239 752 893 749.761 893 747V734H868C865.239 734 863 731.761 863 729V718H852C849.239 718 847 715.761 847 713V702H838C835.239 702 833 699.761 833 697V668H822C819.239 668 817 665.761 817 663V60Z" fill="#32374C"/>
</svg>
